# xmcd
#
# Track frame offsets:
#	150
#	11452
#	24865
#	48055
#	67622
#	88135
#	113137
#	127185
#	144562
#	172287
#	203320
#	214310
#	228725
#	240115
#	264602
#	276397
#	289212
#	310812
#	320625
#	329677
# Disc length: 4545 seconds
# Revision: 2
# Processed by: cddbd v1.5.1PL2 Copyright (c) Steve Scherf et al.
#
# Submitted via: libkcddb 0.21
#
DISCID=2611bf14
DTITLE=Best Of Jazz - CD 2
DYEAR=1900
DGENRE=Jazz
TTITLE0=Dinah Washington - Destination Moon
TTITLE1=Chet Baker - Rockhanal
TTITLE2=Horage Silver - Safari
TTITLE3=Jimmy Smith - You Get 'Cha
TTITLE4=Gerry mullagan - Disk Jockey Jump
TTITLE5=Freddie Hubbard - All Or Nothing at all
TTITLE6=Art Pepper - Sam And The Lady
TTITLE7=Cannonball Adderley - Au Private
TTITLE8=Art Blakey - Along Came Betty
TTITLE9=Lee Morgan - twilihgt Mist
TTITLE10=Stan Kenton - Machito
TTITLE11=Mose allison - I loked In the Mirror
TTITLE12=Stan Kenton - Harlem Holiday
TTITLE13=Herbie Hencock - Cantaloupe Island
TTITLE14=benny Carter - Cuttin' time
TTITLE15=Count Basie - No Moon At All
TTITLE16=Wayne Shooter - Super Nova
TTITLE17=Duke Elington - Janet
TTITLE18=Dinah Washington - I'll Never Stop Loving You
TTITLE19=Bud Powell - Bud On Bach
EXTD=
EXTT0=
EXTT1=
EXTT2=
EXTT3=
EXTT4=
EXTT5=
EXTT6=
EXTT7=
EXTT8=
EXTT9=
EXTT10=
EXTT11=
EXTT12=
EXTT13=
EXTT14=
EXTT15=
EXTT16=
EXTT17=
EXTT18=
EXTT19=
PLAYORDER=
